<svg width="16" height="16" viewBox="0 0 16 16" fill="none" xmlns="http://www.w3.org/2000/svg">
<path fill-rule="evenodd" clip-rule="evenodd" d="M12.276 4.276L10.3907 2.39067C10.1407 2.14067 9.80133 2 9.448 2H4.66666C3.92999 2 3.33333 2.59667 3.33333 3.33333V12.6667C3.33333 13.4033 3.92999 14 4.66666 14H11.3333C12.07 14 12.6667 13.4033 12.6667 12.6667V5.21867C12.6667 4.86533 12.526 4.526 12.276 4.276V4.276Z" stroke="white" stroke-linecap="round" stroke-linejoin="round"/>
<path d="M12.6667 5.33333H10C9.63199 5.33333 9.33333 5.03467 9.33333 4.66667V2" stroke="white" stroke-linecap="round" stroke-linejoin="round"/>
<path d="M6.89333 11.0326H9.10666" stroke="white" stroke-linecap="round" stroke-linejoin="round"/>
<path fill-rule="evenodd" clip-rule="evenodd" d="M7.222 8.49936V7.7207C7.222 7.50603 7.396 7.33203 7.61067 7.33203H8.38933C8.604 7.33203 8.778 7.50603 8.778 7.7207V8.49936C8.778 8.71403 8.604 8.88803 8.38933 8.88803H7.61067C7.396 8.88736 7.222 8.71336 7.222 8.49936Z" stroke="white" stroke-linecap="round" stroke-linejoin="round"/>
<path fill-rule="evenodd" clip-rule="evenodd" d="M5.33333 11.6126V10.834C5.33333 10.6193 5.50733 10.4453 5.72199 10.4453H6.50066C6.71533 10.4453 6.88933 10.6193 6.88933 10.834V11.6126C6.88933 11.8273 6.71533 12.0013 6.50066 12.0013H5.72199C5.50733 12.0013 5.33333 11.8273 5.33333 11.6126Z" stroke="white" stroke-linecap="round" stroke-linejoin="round"/>
<path fill-rule="evenodd" clip-rule="evenodd" d="M9.11133 11.6126V10.834C9.11133 10.6193 9.28533 10.4453 9.49999 10.4453H10.2787C10.4933 10.4453 10.6673 10.6193 10.6673 10.834V11.6126C10.6667 11.8273 10.4927 12.0013 10.278 12.0013H9.49933C9.28533 12.0013 9.11133 11.8273 9.11133 11.6126H9.11133Z" stroke="white" stroke-linecap="round" stroke-linejoin="round"/>
<path d="M9.49333 10.4483L8.48666 8.875" stroke="white" stroke-linecap="round" stroke-linejoin="round"/>
<path d="M6.50667 10.4483L7.51333 8.875" stroke="white" stroke-linecap="round" stroke-linejoin="round"/>
</svg>
