<svg width="24" height="25" viewBox="0 0 24 25" fill="none" xmlns="http://www.w3.org/2000/svg">
<g id="Ico/Edit-Create">
<path id="Vector" d="M21.0016 12.4999V16.5015C21.0016 19.2641 18.7621 21.5036 15.9996 21.5036H7.99622C5.23365 21.5036 2.99414 19.2641 2.99414 16.5015V8.49819C2.99414 5.73562 5.23365 3.49611 7.99622 3.49611H11.9979M17.3797 4.11662C17.7778 3.71882 18.3176 3.49559 18.8804 3.49609C19.4432 3.4966 19.9826 3.72079 20.38 4.1193C20.7781 4.51724 21.0016 5.05706 21.0016 5.61991C21.0016 6.18276 20.7778 6.72252 20.3796 7.12036C20.379 7.11972 16.2018 11.2967 14.7573 12.7412C14.4426 13.0558 14.0316 13.2561 13.5898 13.31L12.1114 13.4926C11.8048 13.5305 11.498 13.4233 11.2816 13.2028C11.0652 12.9823 10.9639 12.6735 11.0076 12.3677L11.2263 10.8361C11.2859 10.4094 11.4829 10.0137 11.7874 9.70897C12.7983 8.69758 15.2688 6.22703 17.3797 4.11662Z" stroke="white" stroke-width="1.5" stroke-linecap="round" stroke-linejoin="round"/>
</g>
</svg>
