<svg width="16" height="16" viewBox="0 0 16 16" fill="none" xmlns="http://www.w3.org/2000/svg">
<g id="Ico/Eye-Cross">
<g id="Vector">
<path d="M9.70401 9.03854C9.27764 9.75745 8.44949 10.1358 7.62692 9.98742C6.80436 9.83907 6.16055 9.19526 6.0122 8.3727C5.86384 7.55014 6.24218 6.72198 6.96109 6.29561M11.9963 11.3308C10.8464 12.203 9.44179 12.6731 7.99858 12.6687C5.60718 12.7112 3.39761 11.397 2.29354 9.27526C1.89694 8.47138 1.89694 7.52874 2.29354 6.72486C2.84571 5.62527 3.72591 4.72443 4.8124 4.14693M13.6168 9.42306C13.6436 9.37237 13.6784 9.3269 13.7036 9.27525C14.1002 8.47137 14.1002 7.52873 13.7036 6.72485C12.5996 4.60314 10.39 3.28886 7.99858 3.33145C7.84866 3.33145 7.70293 3.35146 7.55492 3.36121M14.0011 13.3356L2.66303 1.99756" stroke="#1D1C1D" stroke-linecap="round" stroke-linejoin="round"/>
<path d="M9.70401 9.03854C9.27764 9.75745 8.44949 10.1358 7.62692 9.98742C6.80436 9.83907 6.16055 9.19526 6.0122 8.3727C5.86384 7.55014 6.24218 6.72198 6.96109 6.29561M11.9963 11.3308C10.8464 12.203 9.44179 12.6731 7.99858 12.6687C5.60718 12.7112 3.39761 11.397 2.29354 9.27526C1.89694 8.47138 1.89694 7.52874 2.29354 6.72486C2.84571 5.62527 3.72591 4.72443 4.8124 4.14693M13.6168 9.42306C13.6436 9.37237 13.6784 9.3269 13.7036 9.27525C14.1002 8.47137 14.1002 7.52873 13.7036 6.72485C12.5996 4.60314 10.39 3.28886 7.99858 3.33145C7.84866 3.33145 7.70293 3.35146 7.55492 3.36121M14.0011 13.3356L2.66303 1.99756" stroke="#121212" stroke-linecap="round" stroke-linejoin="round"/>
</g>
</g>
</svg>
