<svg width="24" height="25" viewBox="0 0 24 25" fill="none" xmlns="http://www.w3.org/2000/svg">
<g id="Office, Work/paper-clip-attache">
<g id="Group">
<path id="Path" d="M16.682 9.81849L10.2924 16.2082C10.1048 16.3958 9.85039 16.5012 9.58508 16.5013H7.99842C7.44591 16.5013 6.998 16.0534 6.998 15.5009V13.9142C6.9981 13.6486 7.10225 13.3936 7.28813 13.2039L14.3211 6.0109C15.0468 5.2685 16.0395 4.84743 17.0777 4.84161C18.1159 4.83578 19.1133 5.24568 19.8474 5.97989L19.9194 6.05192C20.6691 6.79569 21.0894 7.80889 21.0865 8.86494C21.0834 9.92099 20.6573 10.9318 19.9034 11.6713C17.5444 13.9812 14.3131 17.1966 12.4623 19.0433C11.5244 19.9783 10.2541 20.5032 8.92981 20.5029H5.99759C4.34004 20.5029 2.99634 19.1592 2.99634 17.5017V14.5715C2.99634 13.2451 3.52318 11.973 4.46095 11.035L10.6795 4.81641" stroke="white" stroke-width="1.5" stroke-linecap="round" stroke-linejoin="round"/>
</g>
</g>
</svg>
