<svg width="250" height="250" viewBox="0 0 250 250" fill="none" xmlns="http://www.w3.org/2000/svg">
<path d="M0 0H10V10H0V0ZM10 0H20V10H10V0ZM20 0H30V10H20V0ZM30 0H40V10H30V0ZM40 0H50V10H40V0ZM50 0H60V10H50V0ZM60 0H70V10H60V0ZM100 0H110V10H100V0ZM120 0H130V10H120V0ZM130 0H140V10H130V0ZM160 0H170V10H160V0ZM180 0H190V10H180V0ZM190 0H200V10H190V0ZM200 0H210V10H200V0ZM210 0H220V10H210V0ZM220 0H230V10H220V0ZM230 0H240V10H230V0ZM240 0H250V10H240V0ZM0 10H10V20H0V10ZM60 10H70V20H60V10ZM80 10H90V20H80V10ZM100 10H110V20H100V10ZM140 10H150V20H140V10ZM150 10H160V20H150V10ZM160 10H170V20H160V10ZM180 10H190V20H180V10ZM240 10H250V20H240V10ZM0 20H10V30H0V20ZM20 20H30V30H20V20ZM30 20H40V30H30V20ZM40 20H50V30H40V20ZM60 20H70V30H60V20ZM120 20H130V30H120V20ZM140 20H150V30H140V20ZM160 20H170V30H160V20ZM180 20H190V30H180V20ZM200 20H210V30H200V20ZM210 20H220V30H210V20ZM220 20H230V30H220V20ZM240 20H250V30H240V20ZM0 30H10V40H0V30ZM20 30H30V40H20V30ZM30 30H40V40H30V30ZM40 30H50V40H40V30ZM60 30H70V40H60V30ZM80 30H90V40H80V30ZM90 30H100V40H90V30ZM100 30H110V40H100V30ZM120 30H130V40H120V30ZM130 30H140V40H130V30ZM180 30H190V40H180V30ZM200 30H210V40H200V30ZM210 30H220V40H210V30ZM220 30H230V40H220V30ZM240 30H250V40H240V30ZM0 40H10V50H0V40ZM20 40H30V50H20V40ZM30 40H40V50H30V40ZM40 40H50V50H40V40ZM60 40H70V50H60V40ZM90 40H100V50H90V40ZM130 40H140V50H130V40ZM160 40H170V50H160V40ZM180 40H190V50H180V40ZM200 40H210V50H200V40ZM210 40H220V50H210V40ZM220 40H230V50H220V40ZM240 40H250V50H240V40ZM0 50H10V60H0V50ZM60 50H70V60H60V50ZM80 50H90V60H80V50ZM90 50H100V60H90V50ZM110 50H120V60H110V50ZM120 50H130V60H120V50ZM130 50H140V60H130V50ZM140 50H150V60H140V50ZM150 50H160V60H150V50ZM160 50H170V60H160V50ZM180 50H190V60H180V50ZM240 50H250V60H240V50ZM0 60H10V70H0V60ZM10 60H20V70H10V60ZM20 60H30V70H20V60ZM30 60H40V70H30V60ZM40 60H50V70H40V60ZM50 60H60V70H50V60ZM60 60H70V70H60V60ZM80 60H90V70H80V60ZM100 60H110V70H100V60ZM120 60H130V70H120V60ZM140 60H150V70H140V60ZM160 60H170V70H160V60ZM180 60H190V70H180V60ZM190 60H200V70H190V60ZM200 60H210V70H200V60ZM210 60H220V70H210V60ZM220 60H230V70H220V60ZM230 60H240V70H230V60ZM240 60H250V70H240V60ZM90 70H100V80H90V70ZM100 70H110V80H100V70ZM110 70H120V80H110V70ZM140 70H150V80H140V70ZM0 80H10V90H0V80ZM10 80H20V90H10V80ZM20 80H30V90H20V80ZM30 80H40V90H30V80ZM40 80H50V90H40V80ZM60 80H70V90H60V80ZM70 80H80V90H70V80ZM80 80H90V90H80V80ZM90 80H100V90H90V80ZM110 80H120V90H110V80ZM150 80H160V90H150V80ZM170 80H180V90H170V80ZM190 80H200V90H190V80ZM210 80H220V90H210V80ZM230 80H240V90H230V80ZM10 90H20V100H10V90ZM30 90H40V100H30V90ZM40 90H50V100H40V90ZM70 90H80V100H70V90ZM80 90H90V100H80V90ZM100 90H110V100H100V90ZM120 90H130V100H120V90ZM130 90H140V100H130V90ZM160 90H170V100H160V90ZM190 90H200V100H190V90ZM230 90H240V100H230V90ZM10 100H20V110H10V100ZM20 100H30V110H20V100ZM30 100H40V110H30V100ZM60 100H70V110H60V100ZM70 100H80V110H70V100ZM80 100H90V110H80V100ZM100 100H110V110H100V100ZM130 100H140V110H130V100ZM140 100H150V110H140V100ZM150 100H160V110H150V100ZM170 100H180V110H170V100ZM190 100H200V110H190V100ZM210 100H220V110H210V100ZM230 100H240V110H230V100ZM240 100H250V110H240V100ZM0 110H10V120H0V110ZM20 110H30V120H20V110ZM30 110H40V120H30V110ZM40 110H50V120H40V110ZM50 110H60V120H50V110ZM80 110H90V120H80V110ZM120 110H130V120H120V110ZM130 110H140V120H130V110ZM160 110H170V120H160V110ZM190 110H200V120H190V110ZM240 110H250V120H240V110ZM0 120H10V130H0V120ZM20 120H30V130H20V120ZM50 120H60V130H50V120ZM60 120H70V130H60V120ZM90 120H100V130H90V120ZM100 120H110V130H100V120ZM120 120H130V130H120V120ZM140 120H150V130H140V120ZM170 120H180V130H170V120ZM180 120H190V130H180V120ZM200 120H210V130H200V120ZM220 120H230V130H220V120ZM230 120H240V130H230V120ZM240 120H250V130H240V120ZM0 130H10V140H0V130ZM10 130H20V140H10V130ZM40 130H50V140H40V130ZM50 130H60V140H50V130ZM70 130H80V140H70V130ZM170 130H180V140H170V130ZM190 130H200V140H190V130ZM210 130H220V140H210V130ZM230 130H240V140H230V130ZM0 140H10V150H0V140ZM60 140H70V150H60V140ZM70 140H80V150H70V140ZM80 140H90V150H80V140ZM90 140H100V150H90V140ZM100 140H110V150H100V140ZM110 140H120V150H110V140ZM120 140H130V150H120V140ZM150 140H160V150H150V140ZM160 140H170V150H160V140ZM170 140H180V150H170V140ZM180 140H190V150H180V140ZM190 140H200V150H190V140ZM200 140H210V150H200V140ZM210 140H220V150H210V140ZM230 140H240V150H230V140ZM240 140H250V150H240V140ZM0 150H10V160H0V150ZM20 150H30V160H20V150ZM40 150H50V160H40V150ZM70 150H80V160H70V150ZM110 150H120V160H110V150ZM140 150H150V160H140V150ZM160 150H170V160H160V150ZM190 150H200V160H190V150ZM200 150H210V160H200V150ZM240 150H250V160H240V150ZM0 160H10V170H0V160ZM20 160H30V170H20V160ZM30 160H40V170H30V160ZM60 160H70V170H60V160ZM70 160H80V170H70V160ZM90 160H100V170H90V160ZM100 160H110V170H100V160ZM110 160H120V170H110V160ZM160 160H170V170H160V160ZM170 160H180V170H170V160ZM180 160H190V170H180V160ZM190 160H200V170H190V160ZM200 160H210V170H200V160ZM220 160H230V170H220V160ZM80 170H90V180H80V170ZM90 170H100V180H90V170ZM100 170H110V180H100V170ZM120 170H130V180H120V170ZM130 170H140V180H130V170ZM140 170H150V180H140V170ZM150 170H160V180H150V170ZM160 170H170V180H160V170ZM200 170H210V180H200V170ZM210 170H220V180H210V170ZM0 180H10V190H0V180ZM10 180H20V190H10V180ZM20 180H30V190H20V180ZM30 180H40V190H30V180ZM40 180H50V190H40V180ZM50 180H60V190H50V180ZM60 180H70V190H60V180ZM80 180H90V190H80V180ZM90 180H100V190H90V180ZM100 180H110V190H100V180ZM130 180H140V190H130V180ZM140 180H150V190H140V180ZM160 180H170V190H160V180ZM180 180H190V190H180V180ZM200 180H210V190H200V180ZM220 180H230V190H220V180ZM230 180H240V190H230V180ZM240 180H250V190H240V180ZM0 190H10V200H0V190ZM60 190H70V200H60V190ZM100 190H110V200H100V190ZM120 190H130V200H120V190ZM130 190H140V200H130V190ZM160 190H170V200H160V190ZM200 190H210V200H200V190ZM210 190H220V200H210V190ZM230 190H240V200H230V190ZM0 200H10V210H0V200ZM20 200H30V210H20V200ZM30 200H40V210H30V200ZM40 200H50V210H40V200ZM60 200H70V210H60V200ZM80 200H90V210H80V200ZM100 200H110V210H100V200ZM120 200H130V210H120V200ZM140 200H150V210H140V200ZM150 200H160V210H150V200ZM160 200H170V210H160V200ZM170 200H180V210H170V200ZM180 200H190V210H180V200ZM190 200H200V210H190V200ZM200 200H210V210H200V200ZM220 200H230V210H220V200ZM240 200H250V210H240V200ZM0 210H10V220H0V210ZM20 210H30V220H20V210ZM30 210H40V220H30V210ZM40 210H50V220H40V210ZM60 210H70V220H60V210ZM80 210H90V220H80V210ZM90 210H100V220H90V210ZM100 210H110V220H100V210ZM150 210H160V220H150V210ZM170 210H180V220H170V210ZM180 210H190V220H180V210ZM200 210H210V220H200V210ZM210 210H220V220H210V210ZM220 210H230V220H220V210ZM230 210H240V220H230V210ZM240 210H250V220H240V210ZM0 220H10V230H0V220ZM20 220H30V230H20V220ZM30 220H40V230H30V220ZM40 220H50V230H40V220ZM60 220H70V230H60V220ZM80 220H90V230H80V220ZM110 220H120V230H110V220ZM120 220H130V230H120V220ZM210 220H220V230H210V220ZM220 220H230V230H220V220ZM240 220H250V230H240V220ZM0 230H10V240H0V230ZM60 230H70V240H60V230ZM80 230H90V240H80V230ZM90 230H100V240H90V230ZM110 230H120V240H110V230ZM140 230H150V240H140V230ZM160 230H170V240H160V230ZM180 230H190V240H180V230ZM190 230H200V240H190V230ZM200 230H210V240H200V230ZM210 230H220V240H210V230ZM240 230H250V240H240V230ZM0 240H10V250H0V240ZM10 240H20V250H10V240ZM20 240H30V250H20V240ZM30 240H40V250H30V240ZM40 240H50V250H40V240ZM50 240H60V250H50V240ZM60 240H70V250H60V240ZM80 240H90V250H80V240ZM90 240H100V250H90V240ZM110 240H120V250H110V240ZM170 240H180V250H170V240ZM180 240H190V250H180V240ZM190 240H200V250H190V240ZM200 240H210V250H200V240ZM210 240H220V250H210V240ZM220 240H230V250H220V240ZM230 240H240V250H230V240ZM240 240H250V250H240V240Z" fill="white"/>
</svg>
