<svg width="81" height="80" viewBox="0 0 81 80" fill="none" xmlns="http://www.w3.org/2000/svg">
<g clip-path="url(#clip0_51906_44529)">
<path d="M67.5878 67.0857C82.6102 52.199 82.6102 28.0628 67.5878 13.176C52.5655 -1.71072 28.2095 -1.71071 13.1872 13.176C-1.83518 28.0628 -1.83518 52.1989 13.1872 67.0857C28.2095 81.9724 52.5655 81.9724 67.5878 67.0857Z" fill="url(#paint0_linear_51906_44529)"/>
<path d="M64.7735 64.2968C78.2415 50.9503 78.2415 29.3114 64.7735 15.965C51.3055 2.6185 29.4695 2.6185 16.0015 15.965C2.53347 29.3114 2.53347 50.9503 16.0015 64.2968C29.4695 77.6432 51.3055 77.6432 64.7735 64.2968Z" fill="url(#paint1_linear_51906_44529)"/>
<path d="M40.3883 68.2292C56.0486 68.2292 68.7437 55.6486 68.7437 40.1297C68.7437 24.6108 56.0486 12.0303 40.3883 12.0303C24.7281 12.0303 12.033 24.6108 12.033 40.1297C12.033 55.6486 24.7281 68.2292 40.3883 68.2292Z" fill="url(#paint2_linear_51906_44529)"/>
<path style="mix-blend-mode:color-dodge" d="M40.3883 68.2292C56.0486 68.2292 68.7437 55.6486 68.7437 40.1297C68.7437 24.6108 56.0486 12.0303 40.3883 12.0303C24.7281 12.0303 12.033 24.6108 12.033 40.1297C12.033 55.6486 24.7281 68.2292 40.3883 68.2292Z" fill="url(#paint3_radial_51906_44529)"/>
<path style="mix-blend-mode:color-dodge" d="M22.1789 47.8134C31.0594 39.2348 42.9248 34.3627 55.3255 34.2031C59.8215 34.205 64.2917 34.8779 68.5855 36.199C67.9994 32.0585 66.4881 28.0998 64.1617 24.6117C61.8354 21.1236 58.7527 18.1941 55.1385 16.0369C51.5243 13.8796 47.4698 12.549 43.2706 12.1421C39.0715 11.7352 34.8337 12.2623 30.8663 13.6849C26.8988 15.1076 23.3019 17.3898 20.3378 20.3653C17.3736 23.3407 15.1171 26.9343 13.7328 30.8839C12.3484 34.8335 11.8711 39.0395 12.3358 43.1951C12.8004 47.3508 14.1952 51.3512 16.4185 54.9047C18.0938 52.3555 20.0237 49.9798 22.1789 47.8134Z" fill="url(#paint4_radial_51906_44529)"/>
<path d="M35.3084 37.1936C32.7994 37.1936 30.2835 37.1323 27.747 37.1936C26.3172 37.2413 25.891 36.6827 25.8635 35.3067C25.7741 30.9266 25.7191 30.913 29.7611 29.1759C33.0468 27.7522 36.367 26.3966 39.6253 24.9253C40.0726 24.7003 40.5672 24.583 41.0688 24.583C41.5705 24.583 42.0651 24.7003 42.5124 24.9253C46.5818 26.7441 50.6719 28.522 54.7963 30.2114C55.2485 30.3347 55.6389 30.6191 55.8926 31.01C56.1463 31.401 56.2455 31.871 56.1711 32.3299C56.1127 33.1349 56.1127 33.9431 56.1711 34.7481C56.2811 36.2536 56.1711 37.4729 54.1089 37.1936C53.2565 37.071 53.1121 37.6364 53.1121 38.3244C53.1121 41.1514 53.1121 43.9716 53.1121 46.7917C53.1121 47.2413 53.0709 47.6841 53.6552 47.9498C55.2362 48.6787 55.6074 50.3067 56.0405 51.71C56.7279 53.8353 56.0886 54.4348 53.8339 54.4757C50.5138 54.4757 47.1867 54.4757 43.8666 54.4757C43.0761 54.4757 41.8044 54.8571 41.8525 53.5152C41.9143 52.2822 43.186 52.6569 43.9903 52.65C46.8361 52.6092 49.6889 52.65 52.5347 52.616C53.1053 52.616 54.2807 53.0247 54.1226 52.0915C53.9851 51.2672 53.9027 49.8367 52.356 49.8299C48.6371 49.8299 44.9183 49.7958 41.1994 49.6868C40.3058 49.6868 38.7454 50.259 38.6973 48.8694C38.6423 47.3367 40.244 47.9975 41.117 47.9702C44.2653 47.8817 44.2653 47.9702 44.2653 44.7073C44.2653 42.6637 44.2034 40.6746 44.2653 38.665C44.3134 37.507 43.9078 37.1391 42.7598 37.1732C40.3264 37.2413 37.8174 37.1936 35.3084 37.1936ZM41.0345 35.4225C44.7602 35.4225 48.4859 35.4634 52.2116 35.4225C52.9884 35.4225 54.2739 36.1037 54.4251 34.5165C54.5213 33.2767 54.7138 32.0642 53.0503 31.4171C49.4689 30.0547 45.9631 28.4266 42.423 26.9075C42.1385 26.7242 41.8172 26.6043 41.4813 26.5561C41.1454 26.5078 40.803 26.5325 40.4777 26.6282C36.5091 28.3312 32.5427 30.0388 28.5787 31.7509C27.2039 32.3639 27.8363 33.6242 27.802 34.5915C27.7401 35.7699 28.7781 35.4225 29.4448 35.4225C33.3287 35.4566 37.1713 35.4225 41.0345 35.4225ZM46.2794 42.398V44.6119C46.2794 48.0656 46.2794 48.0179 49.7645 47.9498C50.9468 47.9498 51.2699 47.5274 51.2355 46.4171C51.1668 44.2713 51.2355 42.1187 51.2355 39.9729C51.2012 36.9007 51.7373 37.3094 48.4859 37.1187C46.5887 37.0097 46.1075 37.6773 46.3068 39.3803C46.3572 40.3949 46.3481 41.4116 46.2794 42.4253V42.398Z" fill="#2456A9"/>
<path d="M30.8608 56.0694H26.1796C24.9286 56.0694 24.3649 55.4427 24.3168 54.1961C24.271 53.6236 24.3459 53.0479 24.5366 52.5057C24.7274 51.9634 25.0298 51.4664 25.4248 51.0461C25.8198 50.6259 26.2986 50.2917 26.8309 50.0646C27.3632 49.8376 27.9373 49.7228 28.5168 49.7274C30.0756 49.6286 31.6392 49.6286 33.198 49.7274C33.985 49.7269 34.7564 49.944 35.4256 50.3544C36.0947 50.7648 36.635 51.3521 36.9856 52.0503C38.2436 54.5639 37.3362 56.083 34.5522 56.0966L30.8608 56.0694ZM30.8608 54.162C32.0088 54.162 33.1568 54.162 34.2979 54.162C34.6691 54.162 35.164 54.3051 35.3427 53.8078C35.4178 53.5745 35.428 53.3255 35.3724 53.087C35.3168 52.8484 35.1973 52.6291 35.0265 52.4522C34.796 52.1601 34.4972 51.928 34.1558 51.776C33.8145 51.6241 33.4409 51.5569 33.0674 51.5803C31.6926 51.5803 30.359 51.5803 29.0049 51.5803C28.2656 51.5139 27.5285 51.7281 26.9426 52.1797C26.7234 52.3407 26.5499 52.5552 26.4391 52.8023C26.3283 53.0493 26.2839 53.3207 26.3102 53.5898C26.434 54.3936 27.1282 54.1211 27.6163 54.1416C28.668 54.1893 29.7541 54.162 30.8402 54.162H30.8608Z" fill="#2456A9"/>
<path d="M34.8273 44.0465C34.7794 45.0577 34.3489 46.0139 33.6215 46.7247C32.8941 47.4354 31.9232 47.8485 30.9022 47.8816C30.379 47.8834 29.8607 47.7826 29.377 47.5851C28.8933 47.3875 28.4538 47.097 28.0838 46.7304C27.7139 46.3638 27.4208 45.9283 27.2214 45.449C27.022 44.9696 26.9203 44.456 26.9221 43.9375C26.9525 42.9236 27.3693 41.9587 28.0886 41.237C28.8079 40.5154 29.7764 40.0905 30.7991 40.0479C31.8508 40.1022 32.8449 40.5411 33.589 41.2797C34.333 42.0183 34.7743 43.0041 34.8273 44.0465ZM28.7988 43.8694C28.895 45.116 29.4862 45.913 30.7991 45.9675C31.3333 45.9928 31.8557 45.8067 32.2515 45.4503C32.6472 45.0939 32.8839 44.5963 32.9094 44.0669C32.9349 43.5376 32.7472 43.0199 32.3876 42.6277C32.0279 42.2355 31.5257 42.0009 30.9916 41.9756C29.7405 41.8871 29.005 42.6432 28.7988 43.8694Z" fill="#2456A9"/>
</g>
<defs>
<linearGradient id="paint0_linear_51906_44529" x1="40.3857" y1="4.15057" x2="40.3857" y2="86.1329" gradientUnits="userSpaceOnUse">
<stop stop-color="#F4F4F4"/>
<stop offset="0.41" stop-color="#DCDCDC"/>
<stop offset="1" stop-color="#B2B2B2"/>
</linearGradient>
<linearGradient id="paint1_linear_51906_44529" x1="40.3857" y1="5.62877" x2="40.3857" y2="70.7786" gradientUnits="userSpaceOnUse">
<stop stop-color="#6772C1"/>
<stop offset="0.11" stop-color="#5E6EBE"/>
<stop offset="0.28" stop-color="#4464B5"/>
<stop offset="0.46" stop-color="#2356AA"/>
<stop offset="0.73" stop-color="#2050C0"/>
</linearGradient>
<linearGradient id="paint2_linear_51906_44529" x1="40.3883" y1="13.6038" x2="40.3883" y2="74.0398" gradientUnits="userSpaceOnUse">
<stop stop-color="#F4F4F4"/>
<stop offset="0.41" stop-color="#DCDCDC"/>
<stop offset="1" stop-color="#B2B2B2"/>
</linearGradient>
<radialGradient id="paint3_radial_51906_44529" cx="0" cy="0" r="1" gradientUnits="userSpaceOnUse" gradientTransform="translate(40.3883 40.1297) scale(28.3554 28.0995)">
<stop offset="0.84"/>
<stop offset="0.89" stop-color="#050505"/>
<stop offset="0.96" stop-color="#131313"/>
<stop offset="1" stop-color="#1F1F1F"/>
</radialGradient>
<radialGradient id="paint4_radial_51906_44529" cx="0" cy="0" r="1" gradientUnits="userSpaceOnUse" gradientTransform="translate(45.4063 58.8557) scale(56.5458 56.0354)">
<stop stop-color="#1F1F1F"/>
<stop offset="0.25" stop-color="#131313"/>
<stop offset="0.65" stop-color="#050505"/>
<stop offset="1"/>
</radialGradient>
<clipPath id="clip0_51906_44529">
<rect width="80" height="80" fill="white" transform="translate(0.333252)"/>
</clipPath>
</defs>
</svg>
