<svg width="48" height="48" viewBox="0 0 48 48" fill="none" xmlns="http://www.w3.org/2000/svg">
<g clip-path="url(#clip0_53325_2500)">
<rect width="48" height="48" rx="24" fill="white"/>
<rect width="48" height="48" rx="24" fill="#1264A3" fill-opacity="0.05"/>
<path fill-rule="evenodd" clip-rule="evenodd" d="M23.7592 9C19.237 9 15.5711 12.6659 15.5711 17.1881C15.5711 21.7102 19.237 25.3761 23.7592 25.3761C28.2813 25.3761 31.9472 21.7102 31.9472 17.1881C31.9472 12.6659 28.2813 9 23.7592 9ZM24 29.711C9.50253 29.711 -2.25 41.4635 -2.25 55.961C-2.25 70.4585 9.50253 82.211 24 82.211C38.4975 82.211 50.25 70.4585 50.25 55.961C50.25 41.4635 38.4975 29.711 24 29.711Z" fill="#EE8722"/>
</g>
<defs>
<clipPath id="clip0_53325_2500">
<rect width="48" height="48" rx="24" fill="white"/>
</clipPath>
</defs>
</svg>
