<svg width="33" height="33" viewBox="0 0 33 33" fill="none" xmlns="http://www.w3.org/2000/svg">
<g clip-path="url(#clip0_53386_53598)">
<path d="M16.2 32.5C25.0366 32.5 32.2 25.3366 32.2 16.5C32.2 7.66344 25.0366 0.5 16.2 0.5C7.36346 0.5 0.200012 7.66344 0.200012 16.5C0.200012 25.3366 7.36346 32.5 16.2 32.5Z" fill="#26A17B"/>
<path fill-rule="evenodd" clip-rule="evenodd" d="M18.122 17.8834V17.8814C18.012 17.8894 17.445 17.9234 16.18 17.9234C15.17 17.9234 14.459 17.8934 14.209 17.8814V17.8844C10.321 17.7134 7.41897 17.0364 7.41897 16.2264C7.41897 15.4174 10.321 14.7404 14.209 14.5664V17.2104C14.463 17.2284 15.191 17.2714 16.197 17.2714C17.404 17.2714 18.009 17.2214 18.122 17.2114V14.5684C22.002 14.7414 24.897 15.4184 24.897 16.2264C24.897 17.0364 22.002 17.7114 18.122 17.8834ZM18.122 14.2934V11.9274H23.536V8.3194H8.79497V11.9274H14.209V14.2924C9.80897 14.4944 6.49997 15.3664 6.49997 16.4104C6.49997 17.4544 9.80897 18.3254 14.209 18.5284V26.1104H18.122V18.5264C22.515 18.3244 25.816 17.4534 25.816 16.4104C25.816 15.3674 22.515 14.4964 18.122 14.2934Z" fill="white"/>
</g>
<defs>
<clipPath id="clip0_53386_53598">
<rect width="32" height="32" fill="white" transform="translate(0.200012 0.5)"/>
</clipPath>
</defs>
</svg>
